<mxfile host="app.diagrams.net" agent="Mozilla/5.0 (Windows NT 10.0; Win64; x64) AppleWebKit/537.36 (KHTML, like Gecko) Chrome/128.0.0.0 Safari/537.36" version="24.7.12">
  <diagram name="PÃ¡gina-1" id="jAeEhFXQmGcpOlbr7XOU">
    <mxGraphModel dx="1326" dy="697" grid="1" gridSize="10" guides="1" tooltips="1" connect="1" arrows="1" fold="1" page="1" pageScale="1" pageWidth="827" pageHeight="1169" math="0" shadow="0">
      <root>
        <mxCell id="0" />
        <mxCell id="1" parent="0" />
        <mxCell id="J8oJ98NYWlFukbN5Ska_-55" value="" style="group;fontFamily=Computer Modern;fillColor=none;strokeColor=none;" vertex="1" connectable="0" parent="1">
          <mxGeometry x="63" y="40" width="710" height="1079" as="geometry" />
        </mxCell>
        <mxCell id="UQ44cCT1rX_nf4LRKSV9-190" value="" style="group;fontFamily=Computer Modern;" parent="J8oJ98NYWlFukbN5Ska_-55" vertex="1" connectable="0">
          <mxGeometry x="57" y="750" width="200" height="180" as="geometry" />
        </mxCell>
        <mxCell id="UQ44cCT1rX_nf4LRKSV9-187" value="" style="rounded=0;whiteSpace=wrap;html=1;fontFamily=Computer Modern;fillColor=none;strokeColor=#b85450;strokeWidth=2;" parent="UQ44cCT1rX_nf4LRKSV9-190" vertex="1">
          <mxGeometry width="200" height="170" as="geometry" />
        </mxCell>
        <mxCell id="UQ44cCT1rX_nf4LRKSV9-184" value="Single Nucleotide Variants&lt;div&gt;(SNVs)&lt;/div&gt;" style="rounded=0;whiteSpace=wrap;html=1;fontFamily=Computer Modern;fillColor=none;strokeColor=#82b366;strokeWidth=2;" parent="UQ44cCT1rX_nf4LRKSV9-190" vertex="1">
          <mxGeometry x="20" y="20" width="160" height="40" as="geometry" />
        </mxCell>
        <mxCell id="UQ44cCT1rX_nf4LRKSV9-186" value="Insertions/ Deletions&lt;div&gt;(Indels)&lt;/div&gt;" style="rounded=0;whiteSpace=wrap;html=1;fontFamily=Computer Modern;fillColor=none;strokeColor=#82b366;strokeWidth=2;" parent="UQ44cCT1rX_nf4LRKSV9-190" vertex="1">
          <mxGeometry x="20" y="110" width="160" height="40" as="geometry" />
        </mxCell>
        <mxCell id="UQ44cCT1rX_nf4LRKSV9-142" style="edgeStyle=orthogonalEdgeStyle;rounded=0;orthogonalLoop=1;jettySize=auto;html=1;exitX=0.5;exitY=1;exitDx=0;exitDy=0;entryX=0.5;entryY=0;entryDx=0;entryDy=0;fontFamily=Computer Modern;" parent="J8oJ98NYWlFukbN5Ska_-55" source="UQ44cCT1rX_nf4LRKSV9-140" target="UQ44cCT1rX_nf4LRKSV9-150" edge="1">
          <mxGeometry relative="1" as="geometry">
            <mxPoint x="390" y="300" as="targetPoint" />
            <Array as="points">
              <mxPoint x="575" y="290" />
              <mxPoint x="350" y="290" />
            </Array>
          </mxGeometry>
        </mxCell>
        <mxCell id="UQ44cCT1rX_nf4LRKSV9-140" value="Analysis-ready&lt;div&gt;FASTQ&lt;/div&gt;" style="rounded=0;whiteSpace=wrap;html=1;strokeColor=none;fontFamily=Computer Modern;fillColor=none;" parent="J8oJ98NYWlFukbN5Ska_-55" vertex="1">
          <mxGeometry x="515" y="230" width="120" height="40" as="geometry" />
        </mxCell>
        <mxCell id="UQ44cCT1rX_nf4LRKSV9-178" style="edgeStyle=orthogonalEdgeStyle;rounded=0;orthogonalLoop=1;jettySize=auto;html=1;exitX=0.5;exitY=1;exitDx=0;exitDy=0;entryX=0.5;entryY=0;entryDx=0;entryDy=0;fontFamily=Computer Modern;" parent="J8oJ98NYWlFukbN5Ska_-55" source="UQ44cCT1rX_nf4LRKSV9-150" target="UQ44cCT1rX_nf4LRKSV9-177" edge="1">
          <mxGeometry relative="1" as="geometry" />
        </mxCell>
        <mxCell id="UQ44cCT1rX_nf4LRKSV9-179" value="Prevariant call processing" style="edgeLabel;html=1;align=center;verticalAlign=middle;resizable=0;points=[];fontFamily=Computer Modern;" parent="UQ44cCT1rX_nf4LRKSV9-178" vertex="1" connectable="0">
          <mxGeometry x="-0.1524" relative="1" as="geometry">
            <mxPoint as="offset" />
          </mxGeometry>
        </mxCell>
        <mxCell id="UQ44cCT1rX_nf4LRKSV9-150" value="&lt;span style=&quot;font-size: 11px; text-wrap: nowrap; background-color: rgb(255, 255, 255);&quot;&gt;Aligned sequence reads&lt;/span&gt;&lt;div style=&quot;font-size: 11px; text-wrap: nowrap;&quot;&gt;BAM/CRAM&lt;/div&gt;" style="rounded=0;whiteSpace=wrap;html=1;align=center;strokeColor=default;fontFamily=Computer Modern;" parent="J8oJ98NYWlFukbN5Ska_-55" vertex="1">
          <mxGeometry x="280" y="320" width="140" height="40" as="geometry" />
        </mxCell>
        <mxCell id="UQ44cCT1rX_nf4LRKSV9-176" value="" style="group;fontFamily=Computer Modern;" parent="J8oJ98NYWlFukbN5Ska_-55" vertex="1" connectable="0">
          <mxGeometry width="340" height="279.83" as="geometry" />
        </mxCell>
        <mxCell id="J8oJ98NYWlFukbN5Ska_-61" value="" style="rounded=0;whiteSpace=wrap;html=1;" vertex="1" parent="UQ44cCT1rX_nf4LRKSV9-176">
          <mxGeometry x="50" y="10" width="290" height="260" as="geometry" />
        </mxCell>
        <mxCell id="UQ44cCT1rX_nf4LRKSV9-91" value="" style="strokeWidth=1;html=1;shape=mxgraph.flowchart.annotation_1;align=left;pointerEvents=1;rotation=90;fontFamily=Computer Modern;" parent="UQ44cCT1rX_nf4LRKSV9-176" vertex="1">
          <mxGeometry x="189.01" y="-91.16" width="10" height="270" as="geometry" />
        </mxCell>
        <mxCell id="UQ44cCT1rX_nf4LRKSV9-92" value="Fragment size" style="rounded=0;whiteSpace=wrap;html=1;strokeColor=none;fillColor=none;fontFamily=Computer Modern;" parent="UQ44cCT1rX_nf4LRKSV9-176" vertex="1">
          <mxGeometry x="135" y="19.01" width="120" height="20" as="geometry" />
        </mxCell>
        <mxCell id="UQ44cCT1rX_nf4LRKSV9-93" value="" style="strokeWidth=1;html=1;shape=mxgraph.flowchart.annotation_1;align=left;pointerEvents=1;rotation=90;fontFamily=Computer Modern;" parent="UQ44cCT1rX_nf4LRKSV9-176" vertex="1">
          <mxGeometry x="189.04" y="-21.14" width="10.11" height="170.4" as="geometry" />
        </mxCell>
        <mxCell id="UQ44cCT1rX_nf4LRKSV9-94" value="Insert size" style="rounded=0;whiteSpace=wrap;html=1;strokeColor=none;fillColor=none;fontFamily=Computer Modern;" parent="UQ44cCT1rX_nf4LRKSV9-176" vertex="1">
          <mxGeometry x="134.09" y="39.010000000000005" width="120" height="20" as="geometry" />
        </mxCell>
        <mxCell id="UQ44cCT1rX_nf4LRKSV9-55" value="" style="rounded=0;whiteSpace=wrap;html=1;fillColor=#808080;fontColor=#333333;strokeColor=none;fontFamily=Computer Modern;" parent="UQ44cCT1rX_nf4LRKSV9-176" vertex="1">
          <mxGeometry x="60" y="108.84" width="50" height="10" as="geometry" />
        </mxCell>
        <mxCell id="UQ44cCT1rX_nf4LRKSV9-57" value="" style="rounded=0;whiteSpace=wrap;html=1;fillColor=#808080;fontColor=#333333;strokeColor=none;fontFamily=Computer Modern;" parent="UQ44cCT1rX_nf4LRKSV9-176" vertex="1">
          <mxGeometry x="60" y="128.84" width="50" height="10" as="geometry" />
        </mxCell>
        <mxCell id="UQ44cCT1rX_nf4LRKSV9-59" value="" style="rounded=0;whiteSpace=wrap;html=1;fillColor=#808080;fontColor=#333333;strokeColor=none;fontFamily=Computer Modern;" parent="UQ44cCT1rX_nf4LRKSV9-176" vertex="1">
          <mxGeometry x="60" y="148.83999999999997" width="50" height="10" as="geometry" />
        </mxCell>
        <mxCell id="UQ44cCT1rX_nf4LRKSV9-61" value="" style="rounded=0;whiteSpace=wrap;html=1;fillColor=#808080;fontColor=#333333;strokeColor=none;fontFamily=Computer Modern;" parent="UQ44cCT1rX_nf4LRKSV9-176" vertex="1">
          <mxGeometry x="60" y="168.83999999999997" width="50" height="10" as="geometry" />
        </mxCell>
        <mxCell id="UQ44cCT1rX_nf4LRKSV9-63" value="" style="rounded=0;whiteSpace=wrap;html=1;fillColor=#808080;fontColor=#333333;strokeColor=none;fontFamily=Computer Modern;" parent="UQ44cCT1rX_nf4LRKSV9-176" vertex="1">
          <mxGeometry x="60" y="188.83999999999997" width="50" height="10" as="geometry" />
        </mxCell>
        <mxCell id="UQ44cCT1rX_nf4LRKSV9-65" value="" style="rounded=0;whiteSpace=wrap;html=1;fillColor=#808080;fontColor=#333333;strokeColor=none;fontFamily=Computer Modern;" parent="UQ44cCT1rX_nf4LRKSV9-176" vertex="1">
          <mxGeometry x="60" y="208.83999999999997" width="50" height="10" as="geometry" />
        </mxCell>
        <mxCell id="UQ44cCT1rX_nf4LRKSV9-67" value="" style="rounded=0;whiteSpace=wrap;html=1;fillColor=#808080;fontColor=#333333;strokeColor=none;fontFamily=Computer Modern;" parent="UQ44cCT1rX_nf4LRKSV9-176" vertex="1">
          <mxGeometry x="60" y="228.83999999999997" width="50" height="10" as="geometry" />
        </mxCell>
        <mxCell id="UQ44cCT1rX_nf4LRKSV9-69" value="" style="rounded=0;whiteSpace=wrap;html=1;fillColor=#808080;fontColor=#333333;strokeColor=none;fontFamily=Computer Modern;" parent="UQ44cCT1rX_nf4LRKSV9-176" vertex="1">
          <mxGeometry x="60" y="248.83999999999997" width="50" height="10" as="geometry" />
        </mxCell>
        <mxCell id="UQ44cCT1rX_nf4LRKSV9-82" value="" style="rounded=0;whiteSpace=wrap;html=1;fillColor=#808080;fontColor=#333333;strokeColor=none;fontFamily=Computer Modern;" parent="UQ44cCT1rX_nf4LRKSV9-176" vertex="1">
          <mxGeometry x="280" y="248.83999999999997" width="50" height="10" as="geometry" />
        </mxCell>
        <mxCell id="UQ44cCT1rX_nf4LRKSV9-81" value="" style="rounded=0;whiteSpace=wrap;html=1;fillColor=#808080;fontColor=#333333;strokeColor=none;fontFamily=Computer Modern;" parent="UQ44cCT1rX_nf4LRKSV9-176" vertex="1">
          <mxGeometry x="280" y="228.83999999999997" width="50" height="10" as="geometry" />
        </mxCell>
        <mxCell id="UQ44cCT1rX_nf4LRKSV9-80" value="" style="rounded=0;whiteSpace=wrap;html=1;fillColor=#808080;fontColor=#333333;strokeColor=none;fontFamily=Computer Modern;" parent="UQ44cCT1rX_nf4LRKSV9-176" vertex="1">
          <mxGeometry x="280" y="208.83999999999997" width="50" height="10" as="geometry" />
        </mxCell>
        <mxCell id="UQ44cCT1rX_nf4LRKSV9-79" value="" style="rounded=0;whiteSpace=wrap;html=1;fillColor=#808080;fontColor=#333333;strokeColor=none;fontFamily=Computer Modern;" parent="UQ44cCT1rX_nf4LRKSV9-176" vertex="1">
          <mxGeometry x="280" y="188.83999999999997" width="50" height="10" as="geometry" />
        </mxCell>
        <mxCell id="UQ44cCT1rX_nf4LRKSV9-78" value="" style="rounded=0;whiteSpace=wrap;html=1;fillColor=#808080;fontColor=#333333;strokeColor=none;fontFamily=Computer Modern;" parent="UQ44cCT1rX_nf4LRKSV9-176" vertex="1">
          <mxGeometry x="280" y="168.83999999999997" width="50" height="10" as="geometry" />
        </mxCell>
        <mxCell id="UQ44cCT1rX_nf4LRKSV9-77" value="" style="rounded=0;whiteSpace=wrap;html=1;fillColor=#808080;fontColor=#333333;strokeColor=none;fontFamily=Computer Modern;" parent="UQ44cCT1rX_nf4LRKSV9-176" vertex="1">
          <mxGeometry x="280" y="148.83999999999997" width="50" height="10" as="geometry" />
        </mxCell>
        <mxCell id="UQ44cCT1rX_nf4LRKSV9-76" value="" style="rounded=0;whiteSpace=wrap;html=1;fillColor=#808080;fontColor=#333333;strokeColor=none;fontFamily=Computer Modern;" parent="UQ44cCT1rX_nf4LRKSV9-176" vertex="1">
          <mxGeometry x="280" y="128.84" width="50" height="10" as="geometry" />
        </mxCell>
        <mxCell id="UQ44cCT1rX_nf4LRKSV9-75" value="" style="rounded=0;whiteSpace=wrap;html=1;fillColor=#808080;fontColor=#333333;strokeColor=none;fontFamily=Computer Modern;" parent="UQ44cCT1rX_nf4LRKSV9-176" vertex="1">
          <mxGeometry x="280" y="108.84" width="50" height="10" as="geometry" />
        </mxCell>
        <mxCell id="UQ44cCT1rX_nf4LRKSV9-74" value="&lt;font style=&quot;font-size: 10px;&quot; color=&quot;#ffffff&quot;&gt;Adapter 2&lt;/font&gt;" style="rounded=0;whiteSpace=wrap;html=1;fillColor=#808080;fontColor=#333333;strokeColor=none;fontFamily=Computer Modern;" parent="UQ44cCT1rX_nf4LRKSV9-176" vertex="1">
          <mxGeometry x="280" y="78.84" width="50" height="10" as="geometry" />
        </mxCell>
        <mxCell id="UQ44cCT1rX_nf4LRKSV9-53" value="&lt;font style=&quot;font-size: 10px;&quot; color=&quot;#ffffff&quot;&gt;Adapter 1&lt;/font&gt;" style="rounded=0;whiteSpace=wrap;html=1;fillColor=#808080;fontColor=#333333;strokeColor=none;fontFamily=Computer Modern;" parent="UQ44cCT1rX_nf4LRKSV9-176" vertex="1">
          <mxGeometry x="60" y="78.84" width="50" height="10" as="geometry" />
        </mxCell>
        <mxCell id="UQ44cCT1rX_nf4LRKSV9-86" value="" style="endArrow=none;html=1;rounded=0;startArrow=classic;startFill=1;endFill=0;fontFamily=Computer Modern;" parent="UQ44cCT1rX_nf4LRKSV9-176" edge="1">
          <mxGeometry width="50" height="50" relative="1" as="geometry">
            <mxPoint x="210" y="100" as="sourcePoint" />
            <mxPoint x="280" y="100.16" as="targetPoint" />
          </mxGeometry>
        </mxCell>
        <mxCell id="UQ44cCT1rX_nf4LRKSV9-87" value="&lt;font style=&quot;font-size: 10px;&quot;&gt;Read 2&lt;/font&gt;" style="edgeLabel;html=1;align=center;verticalAlign=middle;resizable=0;points=[];fontFamily=Computer Modern;" parent="UQ44cCT1rX_nf4LRKSV9-86" vertex="1" connectable="0">
          <mxGeometry x="0.2267" relative="1" as="geometry">
            <mxPoint x="-1" as="offset" />
          </mxGeometry>
        </mxCell>
        <mxCell id="J8oJ98NYWlFukbN5Ska_-67" value="" style="rounded=0;whiteSpace=wrap;html=1;fillColor=#CCCCCC;fontColor=#333333;strokeColor=none;fontFamily=Computer Modern;" vertex="1" parent="UQ44cCT1rX_nf4LRKSV9-176">
          <mxGeometry x="110" y="78.84" width="170" height="10" as="geometry" />
        </mxCell>
        <mxCell id="J8oJ98NYWlFukbN5Ska_-68" value="" style="rounded=0;whiteSpace=wrap;html=1;fillColor=#CCCCCC;fontColor=#333333;strokeColor=none;fontFamily=Computer Modern;" vertex="1" parent="UQ44cCT1rX_nf4LRKSV9-176">
          <mxGeometry x="110" y="108.84" width="170" height="10" as="geometry" />
        </mxCell>
        <mxCell id="J8oJ98NYWlFukbN5Ska_-69" value="" style="rounded=0;whiteSpace=wrap;html=1;fillColor=#CCCCCC;fontColor=#333333;strokeColor=none;fontFamily=Computer Modern;" vertex="1" parent="UQ44cCT1rX_nf4LRKSV9-176">
          <mxGeometry x="110" y="128.84" width="170" height="10" as="geometry" />
        </mxCell>
        <mxCell id="J8oJ98NYWlFukbN5Ska_-70" value="" style="rounded=0;whiteSpace=wrap;html=1;fillColor=#CCCCCC;fontColor=#333333;strokeColor=none;fontFamily=Computer Modern;" vertex="1" parent="UQ44cCT1rX_nf4LRKSV9-176">
          <mxGeometry x="110" y="148.84" width="170" height="10" as="geometry" />
        </mxCell>
        <mxCell id="J8oJ98NYWlFukbN5Ska_-71" value="" style="rounded=0;whiteSpace=wrap;html=1;fillColor=#CCCCCC;fontColor=#333333;strokeColor=none;fontFamily=Computer Modern;" vertex="1" parent="UQ44cCT1rX_nf4LRKSV9-176">
          <mxGeometry x="110" y="168.84" width="170" height="10" as="geometry" />
        </mxCell>
        <mxCell id="J8oJ98NYWlFukbN5Ska_-72" value="" style="rounded=0;whiteSpace=wrap;html=1;fillColor=#CCCCCC;fontColor=#333333;strokeColor=none;fontFamily=Computer Modern;" vertex="1" parent="UQ44cCT1rX_nf4LRKSV9-176">
          <mxGeometry x="110" y="188.84" width="170" height="10" as="geometry" />
        </mxCell>
        <mxCell id="J8oJ98NYWlFukbN5Ska_-73" value="" style="rounded=0;whiteSpace=wrap;html=1;fillColor=#CCCCCC;fontColor=#333333;strokeColor=none;fontFamily=Computer Modern;" vertex="1" parent="UQ44cCT1rX_nf4LRKSV9-176">
          <mxGeometry x="110" y="208.84" width="170" height="10" as="geometry" />
        </mxCell>
        <mxCell id="J8oJ98NYWlFukbN5Ska_-74" value="" style="rounded=0;whiteSpace=wrap;html=1;fillColor=#CCCCCC;fontColor=#333333;strokeColor=none;fontFamily=Computer Modern;" vertex="1" parent="UQ44cCT1rX_nf4LRKSV9-176">
          <mxGeometry x="110" y="228.83999999999997" width="170" height="10" as="geometry" />
        </mxCell>
        <mxCell id="J8oJ98NYWlFukbN5Ska_-75" value="" style="rounded=0;whiteSpace=wrap;html=1;fillColor=#CCCCCC;fontColor=#333333;strokeColor=none;fontFamily=Computer Modern;" vertex="1" parent="UQ44cCT1rX_nf4LRKSV9-176">
          <mxGeometry x="110" y="248.83999999999997" width="170" height="10" as="geometry" />
        </mxCell>
        <mxCell id="J8oJ98NYWlFukbN5Ska_-79" value="" style="endArrow=classic;html=1;rounded=0;startArrow=none;startFill=0;endFill=1;fontFamily=Computer Modern;" edge="1" parent="UQ44cCT1rX_nf4LRKSV9-176">
          <mxGeometry width="50" height="50" relative="1" as="geometry">
            <mxPoint x="110" y="100" as="sourcePoint" />
            <mxPoint x="180" y="100.16" as="targetPoint" />
          </mxGeometry>
        </mxCell>
        <mxCell id="J8oJ98NYWlFukbN5Ska_-80" value="&lt;font style=&quot;font-size: 10px;&quot;&gt;Read 1&lt;/font&gt;" style="edgeLabel;html=1;align=center;verticalAlign=middle;resizable=0;points=[];fontFamily=Computer Modern;" vertex="1" connectable="0" parent="J8oJ98NYWlFukbN5Ska_-79">
          <mxGeometry x="0.2267" relative="1" as="geometry">
            <mxPoint x="-16" as="offset" />
          </mxGeometry>
        </mxCell>
        <mxCell id="UQ44cCT1rX_nf4LRKSV9-181" style="edgeStyle=orthogonalEdgeStyle;rounded=0;orthogonalLoop=1;jettySize=auto;html=1;exitX=0.5;exitY=1;exitDx=0;exitDy=0;entryX=0.5;entryY=0;entryDx=0;entryDy=0;fontFamily=Computer Modern;" parent="J8oJ98NYWlFukbN5Ska_-55" source="UQ44cCT1rX_nf4LRKSV9-177" target="UQ44cCT1rX_nf4LRKSV9-144" edge="1">
          <mxGeometry relative="1" as="geometry" />
        </mxCell>
        <mxCell id="UQ44cCT1rX_nf4LRKSV9-177" value="Processed BAM/CRAM" style="rounded=0;whiteSpace=wrap;html=1;fontFamily=Computer Modern;" parent="J8oJ98NYWlFukbN5Ska_-55" vertex="1">
          <mxGeometry x="280" y="410" width="140" height="30" as="geometry" />
        </mxCell>
        <mxCell id="J8oJ98NYWlFukbN5Ska_-47" style="edgeStyle=orthogonalEdgeStyle;rounded=0;orthogonalLoop=1;jettySize=auto;html=1;exitX=0.5;exitY=1;exitDx=0;exitDy=0;entryX=1;entryY=0.5;entryDx=0;entryDy=0;fontFamily=Computer Modern;fillColor=#dae8fc;strokeColor=#6c8ebf;" edge="1" parent="J8oJ98NYWlFukbN5Ska_-55" source="UQ44cCT1rX_nf4LRKSV9-196" target="J8oJ98NYWlFukbN5Ska_-46">
          <mxGeometry relative="1" as="geometry" />
        </mxCell>
        <mxCell id="J8oJ98NYWlFukbN5Ska_-49" style="edgeStyle=orthogonalEdgeStyle;rounded=0;orthogonalLoop=1;jettySize=auto;html=1;exitX=0.5;exitY=1;exitDx=0;exitDy=0;fontFamily=Computer Modern;" edge="1" parent="J8oJ98NYWlFukbN5Ska_-55" source="J8oJ98NYWlFukbN5Ska_-46" target="J8oJ98NYWlFukbN5Ska_-50">
          <mxGeometry relative="1" as="geometry">
            <mxPoint x="330" y="1040" as="targetPoint" />
            <Array as="points">
              <mxPoint x="351" y="1010" />
              <mxPoint x="130" y="1010" />
            </Array>
          </mxGeometry>
        </mxCell>
        <mxCell id="J8oJ98NYWlFukbN5Ska_-46" value="Variant Call Format&lt;div&gt;&lt;span style=&quot;background-color: initial;&quot;&gt;(VCF)&lt;/span&gt;&lt;/div&gt;" style="rounded=0;whiteSpace=wrap;html=1;fontFamily=Computer Modern;" vertex="1" parent="J8oJ98NYWlFukbN5Ska_-55">
          <mxGeometry x="291" y="952.6300000000001" width="120" height="40" as="geometry" />
        </mxCell>
        <mxCell id="J8oJ98NYWlFukbN5Ska_-45" style="edgeStyle=orthogonalEdgeStyle;rounded=0;orthogonalLoop=1;jettySize=auto;html=1;exitX=0.5;exitY=1;exitDx=0;exitDy=0;entryX=0;entryY=0.5;entryDx=0;entryDy=0;fontFamily=Computer Modern;fillColor=#d5e8d4;strokeColor=#82b366;" edge="1" parent="J8oJ98NYWlFukbN5Ska_-55" source="UQ44cCT1rX_nf4LRKSV9-188" target="J8oJ98NYWlFukbN5Ska_-46">
          <mxGeometry relative="1" as="geometry">
            <mxPoint x="330" y="1000" as="targetPoint" />
          </mxGeometry>
        </mxCell>
        <mxCell id="UQ44cCT1rX_nf4LRKSV9-144" value="" style="rounded=0;whiteSpace=wrap;html=1;fontFamily=Computer Modern;fillColor=none;" parent="J8oJ98NYWlFukbN5Ska_-55" vertex="1">
          <mxGeometry x="60" y="470" width="630" height="250" as="geometry" />
        </mxCell>
        <mxCell id="UQ44cCT1rX_nf4LRKSV9-19" value="" style="rounded=0;whiteSpace=wrap;html=1;fillColor=#A680B8;strokeColor=none;fontFamily=Computer Modern;" parent="J8oJ98NYWlFukbN5Ska_-55" vertex="1">
          <mxGeometry x="70" y="500" width="610" height="10" as="geometry" />
        </mxCell>
        <mxCell id="UQ44cCT1rX_nf4LRKSV9-20" value="" style="rounded=0;whiteSpace=wrap;html=1;fillColor=#f8cecc;strokeColor=none;fontFamily=Computer Modern;" parent="J8oJ98NYWlFukbN5Ska_-55" vertex="1">
          <mxGeometry x="72" y="520" width="230" height="10" as="geometry" />
        </mxCell>
        <mxCell id="UQ44cCT1rX_nf4LRKSV9-21" value="" style="rounded=0;whiteSpace=wrap;html=1;fillColor=#b1ddf0;strokeColor=none;fontFamily=Computer Modern;" parent="J8oJ98NYWlFukbN5Ska_-55" vertex="1">
          <mxGeometry x="89" y="540" width="230" height="10" as="geometry" />
        </mxCell>
        <mxCell id="UQ44cCT1rX_nf4LRKSV9-22" value="" style="rounded=0;whiteSpace=wrap;html=1;fillColor=#f8cecc;strokeColor=none;fontFamily=Computer Modern;" parent="J8oJ98NYWlFukbN5Ska_-55" vertex="1">
          <mxGeometry x="111" y="560" width="230" height="10" as="geometry" />
        </mxCell>
        <mxCell id="UQ44cCT1rX_nf4LRKSV9-23" value="" style="rounded=0;whiteSpace=wrap;html=1;fillColor=#b1ddf0;strokeColor=none;fontFamily=Computer Modern;" parent="J8oJ98NYWlFukbN5Ska_-55" vertex="1">
          <mxGeometry x="120" y="580" width="230" height="10" as="geometry" />
        </mxCell>
        <mxCell id="UQ44cCT1rX_nf4LRKSV9-24" value="" style="rounded=0;whiteSpace=wrap;html=1;fillColor=#f8cecc;strokeColor=none;fontFamily=Computer Modern;" parent="J8oJ98NYWlFukbN5Ska_-55" vertex="1">
          <mxGeometry x="160" y="600" width="230" height="10" as="geometry" />
        </mxCell>
        <mxCell id="UQ44cCT1rX_nf4LRKSV9-25" value="" style="rounded=0;whiteSpace=wrap;html=1;fillColor=#b1ddf0;strokeColor=none;fontFamily=Computer Modern;" parent="J8oJ98NYWlFukbN5Ska_-55" vertex="1">
          <mxGeometry x="180" y="620" width="230" height="10" as="geometry" />
        </mxCell>
        <mxCell id="UQ44cCT1rX_nf4LRKSV9-26" value="" style="rounded=0;whiteSpace=wrap;html=1;fillColor=#f8cecc;strokeColor=none;fontFamily=Computer Modern;" parent="J8oJ98NYWlFukbN5Ska_-55" vertex="1">
          <mxGeometry x="200" y="640" width="230" height="10" as="geometry" />
        </mxCell>
        <mxCell id="UQ44cCT1rX_nf4LRKSV9-27" value="" style="rounded=0;whiteSpace=wrap;html=1;fillColor=#b1ddf0;strokeColor=none;fontFamily=Computer Modern;" parent="J8oJ98NYWlFukbN5Ska_-55" vertex="1">
          <mxGeometry x="210" y="660" width="230" height="10" as="geometry" />
        </mxCell>
        <mxCell id="UQ44cCT1rX_nf4LRKSV9-28" value="" style="rounded=0;whiteSpace=wrap;html=1;fillColor=#f8cecc;strokeColor=none;fontFamily=Computer Modern;" parent="J8oJ98NYWlFukbN5Ska_-55" vertex="1">
          <mxGeometry x="230" y="680" width="230" height="10" as="geometry" />
        </mxCell>
        <mxCell id="UQ44cCT1rX_nf4LRKSV9-29" value="" style="rounded=0;whiteSpace=wrap;html=1;fillColor=#b1ddf0;strokeColor=none;fontFamily=Computer Modern;" parent="J8oJ98NYWlFukbN5Ska_-55" vertex="1">
          <mxGeometry x="240" y="700" width="230" height="10" as="geometry" />
        </mxCell>
        <mxCell id="UQ44cCT1rX_nf4LRKSV9-36" value="" style="rounded=0;whiteSpace=wrap;html=1;fillColor=#f8cecc;strokeColor=none;fontFamily=Computer Modern;" parent="J8oJ98NYWlFukbN5Ska_-55" vertex="1">
          <mxGeometry x="350" y="520" width="230" height="10" as="geometry" />
        </mxCell>
        <mxCell id="UQ44cCT1rX_nf4LRKSV9-37" value="" style="rounded=0;whiteSpace=wrap;html=1;fillColor=#b1ddf0;strokeColor=none;fontFamily=Computer Modern;" parent="J8oJ98NYWlFukbN5Ska_-55" vertex="1">
          <mxGeometry x="370" y="540" width="230" height="10" as="geometry" />
        </mxCell>
        <mxCell id="UQ44cCT1rX_nf4LRKSV9-38" value="" style="rounded=0;whiteSpace=wrap;html=1;fillColor=#f8cecc;strokeColor=none;fontFamily=Computer Modern;" parent="J8oJ98NYWlFukbN5Ska_-55" vertex="1">
          <mxGeometry x="390" y="560" width="230" height="10" as="geometry" />
        </mxCell>
        <mxCell id="UQ44cCT1rX_nf4LRKSV9-39" value="" style="rounded=0;whiteSpace=wrap;html=1;fillColor=#b1ddf0;strokeColor=none;fontFamily=Computer Modern;" parent="J8oJ98NYWlFukbN5Ska_-55" vertex="1">
          <mxGeometry x="400" y="580" width="230" height="10" as="geometry" />
        </mxCell>
        <mxCell id="UQ44cCT1rX_nf4LRKSV9-40" value="" style="rounded=0;whiteSpace=wrap;html=1;fillColor=#f8cecc;strokeColor=none;fontFamily=Computer Modern;" parent="J8oJ98NYWlFukbN5Ska_-55" vertex="1">
          <mxGeometry x="420" y="600" width="230" height="10" as="geometry" />
        </mxCell>
        <mxCell id="UQ44cCT1rX_nf4LRKSV9-41" value="" style="rounded=0;whiteSpace=wrap;html=1;fillColor=#b1ddf0;strokeColor=none;fontFamily=Computer Modern;" parent="J8oJ98NYWlFukbN5Ska_-55" vertex="1">
          <mxGeometry x="430" y="620" width="230" height="10" as="geometry" />
        </mxCell>
        <mxCell id="UQ44cCT1rX_nf4LRKSV9-42" value="Human Reference Genome" style="rounded=0;whiteSpace=wrap;html=1;align=right;strokeColor=none;fontFamily=Computer Modern;" parent="J8oJ98NYWlFukbN5Ska_-55" vertex="1">
          <mxGeometry x="540" y="480" width="140" height="20" as="geometry" />
        </mxCell>
        <mxCell id="UQ44cCT1rX_nf4LRKSV9-43" value="A" style="rounded=0;whiteSpace=wrap;html=1;strokeColor=none;fillColor=none;fontFamily=Computer Modern;" parent="J8oJ98NYWlFukbN5Ska_-55" vertex="1">
          <mxGeometry x="220" y="520" width="10" height="10" as="geometry" />
        </mxCell>
        <mxCell id="UQ44cCT1rX_nf4LRKSV9-44" value="A" style="rounded=0;whiteSpace=wrap;html=1;strokeColor=none;fillColor=none;fontFamily=Computer Modern;" parent="J8oJ98NYWlFukbN5Ska_-55" vertex="1">
          <mxGeometry x="220" y="580" width="10" height="10" as="geometry" />
        </mxCell>
        <mxCell id="UQ44cCT1rX_nf4LRKSV9-45" value="A" style="rounded=0;whiteSpace=wrap;html=1;strokeColor=none;fillColor=none;fontFamily=Computer Modern;" parent="J8oJ98NYWlFukbN5Ska_-55" vertex="1">
          <mxGeometry x="220" y="600" width="10" height="10" as="geometry" />
        </mxCell>
        <mxCell id="UQ44cCT1rX_nf4LRKSV9-46" value="A" style="rounded=0;whiteSpace=wrap;html=1;strokeColor=none;fillColor=none;fontFamily=Computer Modern;" parent="J8oJ98NYWlFukbN5Ska_-55" vertex="1">
          <mxGeometry x="220" y="620" width="10" height="10" as="geometry" />
        </mxCell>
        <mxCell id="UQ44cCT1rX_nf4LRKSV9-47" value="A" style="rounded=0;whiteSpace=wrap;html=1;strokeColor=none;fillColor=none;fontFamily=Computer Modern;" parent="J8oJ98NYWlFukbN5Ska_-55" vertex="1">
          <mxGeometry x="220" y="660" width="10" height="10" as="geometry" />
        </mxCell>
        <mxCell id="UQ44cCT1rX_nf4LRKSV9-48" value="" style="rounded=0;whiteSpace=wrap;html=1;strokeWidth=0.5;fontFamily=Computer Modern;" parent="J8oJ98NYWlFukbN5Ska_-55" vertex="1">
          <mxGeometry x="280" y="600" width="30" height="10" as="geometry" />
        </mxCell>
        <mxCell id="UQ44cCT1rX_nf4LRKSV9-49" value="" style="rounded=0;whiteSpace=wrap;html=1;strokeWidth=0.5;fontFamily=Computer Modern;" parent="J8oJ98NYWlFukbN5Ska_-55" vertex="1">
          <mxGeometry x="280" y="620" width="30" height="10" as="geometry" />
        </mxCell>
        <mxCell id="UQ44cCT1rX_nf4LRKSV9-50" value="" style="rounded=0;whiteSpace=wrap;html=1;strokeWidth=0.5;fontFamily=Computer Modern;" parent="J8oJ98NYWlFukbN5Ska_-55" vertex="1">
          <mxGeometry x="280" y="680" width="30" height="10" as="geometry" />
        </mxCell>
        <mxCell id="UQ44cCT1rX_nf4LRKSV9-199" value="T" style="rounded=0;whiteSpace=wrap;html=1;strokeColor=none;fillColor=none;fontFamily=Computer Modern;" parent="J8oJ98NYWlFukbN5Ska_-55" vertex="1">
          <mxGeometry x="220" y="500" width="10" height="10" as="geometry" />
        </mxCell>
        <mxCell id="J8oJ98NYWlFukbN5Ska_-48" value="" style="group;fontFamily=Computer Modern;" vertex="1" connectable="0" parent="J8oJ98NYWlFukbN5Ska_-55">
          <mxGeometry x="360" y="612" width="331.25" height="340.63" as="geometry" />
        </mxCell>
        <mxCell id="UQ44cCT1rX_nf4LRKSV9-192" value="" style="shape=trapezoid;perimeter=trapezoidPerimeter;whiteSpace=wrap;html=1;fixedSize=1;rotation=0;size=150.6199999999999;fillColor=#dae8fc;strokeColor=none;fillOpacity=70;fontFamily=Computer Modern;" parent="J8oJ98NYWlFukbN5Ska_-48" vertex="1">
          <mxGeometry y="25" width="331.25" height="115" as="geometry" />
        </mxCell>
        <mxCell id="UQ44cCT1rX_nf4LRKSV9-191" value="" style="rounded=0;whiteSpace=wrap;html=1;fontFamily=Computer Modern;fillColor=none;strokeColor=#b85450;strokeWidth=2;" parent="J8oJ98NYWlFukbN5Ska_-48" vertex="1">
          <mxGeometry x="4.551914400963142e-15" y="140" width="330" height="170.63" as="geometry" />
        </mxCell>
        <mxCell id="UQ44cCT1rX_nf4LRKSV9-200" value="" style="rounded=0;whiteSpace=wrap;html=1;fillColor=#b1ddf0;strokeColor=none;fontFamily=Computer Modern;" parent="J8oJ98NYWlFukbN5Ska_-48" vertex="1">
          <mxGeometry x="10.000000000000005" y="170.63" width="90" height="10" as="geometry" />
        </mxCell>
        <mxCell id="UQ44cCT1rX_nf4LRKSV9-201" value="" style="rounded=0;whiteSpace=wrap;html=1;fillColor=#b1ddf0;strokeColor=none;fontFamily=Computer Modern;" parent="J8oJ98NYWlFukbN5Ska_-48" vertex="1">
          <mxGeometry x="10.000000000000005" y="190.63" width="90" height="10" as="geometry" />
        </mxCell>
        <mxCell id="UQ44cCT1rX_nf4LRKSV9-202" value="" style="rounded=0;whiteSpace=wrap;html=1;fillColor=#b1ddf0;strokeColor=none;fontFamily=Computer Modern;" parent="J8oJ98NYWlFukbN5Ska_-48" vertex="1">
          <mxGeometry x="10.000000000000005" y="240.63" width="90" height="10" as="geometry" />
        </mxCell>
        <mxCell id="UQ44cCT1rX_nf4LRKSV9-203" value="" style="rounded=0;whiteSpace=wrap;html=1;fillColor=#b1ddf0;strokeColor=none;fontFamily=Computer Modern;" parent="J8oJ98NYWlFukbN5Ska_-48" vertex="1">
          <mxGeometry x="10.000000000000005" y="260.63" width="90" height="10" as="geometry" />
        </mxCell>
        <mxCell id="UQ44cCT1rX_nf4LRKSV9-204" value="" style="rounded=0;whiteSpace=wrap;html=1;fillColor=#b1ddf0;strokeColor=none;fontFamily=Computer Modern;" parent="J8oJ98NYWlFukbN5Ska_-48" vertex="1">
          <mxGeometry x="120" y="170.63" width="90" height="10" as="geometry" />
        </mxCell>
        <mxCell id="UQ44cCT1rX_nf4LRKSV9-205" value="" style="rounded=0;whiteSpace=wrap;html=1;fillColor=#b1ddf0;strokeColor=none;fontFamily=Computer Modern;" parent="J8oJ98NYWlFukbN5Ska_-48" vertex="1">
          <mxGeometry x="120" y="190.63" width="90" height="10" as="geometry" />
        </mxCell>
        <mxCell id="UQ44cCT1rX_nf4LRKSV9-206" value="" style="rounded=0;whiteSpace=wrap;html=1;fillColor=#b1ddf0;strokeColor=none;fontFamily=Computer Modern;" parent="J8oJ98NYWlFukbN5Ska_-48" vertex="1">
          <mxGeometry x="120" y="240.63" width="90" height="10" as="geometry" />
        </mxCell>
        <mxCell id="UQ44cCT1rX_nf4LRKSV9-207" value="" style="rounded=0;whiteSpace=wrap;html=1;fillColor=#b1ddf0;strokeColor=none;fontFamily=Computer Modern;" parent="J8oJ98NYWlFukbN5Ska_-48" vertex="1">
          <mxGeometry x="120" y="260.63" width="90" height="10" as="geometry" />
        </mxCell>
        <mxCell id="UQ44cCT1rX_nf4LRKSV9-208" value="" style="rounded=0;whiteSpace=wrap;html=1;fillColor=#b1ddf0;strokeColor=none;fontFamily=Computer Modern;" parent="J8oJ98NYWlFukbN5Ska_-48" vertex="1">
          <mxGeometry x="230" y="170.63" width="90" height="10" as="geometry" />
        </mxCell>
        <mxCell id="UQ44cCT1rX_nf4LRKSV9-209" value="" style="rounded=0;whiteSpace=wrap;html=1;fillColor=#b1ddf0;strokeColor=none;fontFamily=Computer Modern;" parent="J8oJ98NYWlFukbN5Ska_-48" vertex="1">
          <mxGeometry x="230" y="190.63" width="90" height="10" as="geometry" />
        </mxCell>
        <mxCell id="UQ44cCT1rX_nf4LRKSV9-210" value="" style="rounded=0;whiteSpace=wrap;html=1;fillColor=#b1ddf0;strokeColor=none;fontFamily=Computer Modern;" parent="J8oJ98NYWlFukbN5Ska_-48" vertex="1">
          <mxGeometry x="230" y="240.63" width="90" height="10" as="geometry" />
        </mxCell>
        <mxCell id="UQ44cCT1rX_nf4LRKSV9-211" value="" style="rounded=0;whiteSpace=wrap;html=1;fillColor=#b1ddf0;strokeColor=none;fontFamily=Computer Modern;" parent="J8oJ98NYWlFukbN5Ska_-48" vertex="1">
          <mxGeometry x="230" y="260.63" width="90" height="10" as="geometry" />
        </mxCell>
        <mxCell id="UQ44cCT1rX_nf4LRKSV9-213" style="edgeStyle=orthogonalEdgeStyle;rounded=0;orthogonalLoop=1;jettySize=auto;html=1;exitX=0.5;exitY=0;exitDx=0;exitDy=0;entryX=0.5;entryY=1;entryDx=0;entryDy=0;endArrow=none;endFill=0;dashed=1;dashPattern=1 1;fontFamily=Computer Modern;" parent="J8oJ98NYWlFukbN5Ska_-48" source="UQ44cCT1rX_nf4LRKSV9-200" target="UQ44cCT1rX_nf4LRKSV9-200" edge="1">
          <mxGeometry relative="1" as="geometry" />
        </mxCell>
        <mxCell id="UQ44cCT1rX_nf4LRKSV9-217" style="edgeStyle=orthogonalEdgeStyle;rounded=1;orthogonalLoop=1;jettySize=auto;html=1;exitX=0;exitY=0.5;exitDx=0;exitDy=0;entryX=0.5;entryY=0;entryDx=0;entryDy=0;flowAnimation=0;curved=0;endSize=2;fontFamily=Computer Modern;" parent="J8oJ98NYWlFukbN5Ska_-48" source="UQ44cCT1rX_nf4LRKSV9-214" target="UQ44cCT1rX_nf4LRKSV9-200" edge="1">
          <mxGeometry relative="1" as="geometry" />
        </mxCell>
        <mxCell id="UQ44cCT1rX_nf4LRKSV9-214" value="" style="rounded=0;whiteSpace=wrap;html=1;fillColor=#fff2cc;strokeColor=#d6b656;fontFamily=Computer Modern;" parent="J8oJ98NYWlFukbN5Ska_-48" vertex="1">
          <mxGeometry x="70" y="150.63" width="30" height="10" as="geometry" />
        </mxCell>
        <mxCell id="UQ44cCT1rX_nf4LRKSV9-215" value="" style="rounded=0;whiteSpace=wrap;html=1;fillColor=#fff2cc;strokeColor=#d6b656;fontFamily=Computer Modern;" parent="J8oJ98NYWlFukbN5Ska_-48" vertex="1">
          <mxGeometry x="40.00000000000001" y="190.63" width="30" height="10" as="geometry" />
        </mxCell>
        <mxCell id="UQ44cCT1rX_nf4LRKSV9-219" value="=" style="text;html=1;align=center;verticalAlign=middle;whiteSpace=wrap;rounded=0;fontFamily=Computer Modern;" parent="J8oJ98NYWlFukbN5Ska_-48" vertex="1">
          <mxGeometry x="45.00000000000001" y="180.63" width="20" height="10" as="geometry" />
        </mxCell>
        <mxCell id="UQ44cCT1rX_nf4LRKSV9-220" value="" style="rounded=0;whiteSpace=wrap;html=1;fillColor=#fff2cc;strokeColor=#d6b656;fontFamily=Computer Modern;" parent="J8oJ98NYWlFukbN5Ska_-48" vertex="1">
          <mxGeometry x="150" y="170.63" width="30" height="10" as="geometry" />
        </mxCell>
        <mxCell id="UQ44cCT1rX_nf4LRKSV9-222" style="edgeStyle=orthogonalEdgeStyle;rounded=0;orthogonalLoop=1;jettySize=auto;html=1;exitX=0.5;exitY=0;exitDx=0;exitDy=0;entryX=0.5;entryY=1;entryDx=0;entryDy=0;endArrow=none;endFill=0;dashed=1;dashPattern=1 1;fontFamily=Computer Modern;" parent="J8oJ98NYWlFukbN5Ska_-48" edge="1">
          <mxGeometry relative="1" as="geometry">
            <mxPoint x="164.95000000000005" y="190.63" as="sourcePoint" />
            <mxPoint x="164.95000000000005" y="200.63" as="targetPoint" />
          </mxGeometry>
        </mxCell>
        <mxCell id="UQ44cCT1rX_nf4LRKSV9-223" value="=" style="text;html=1;align=center;verticalAlign=middle;whiteSpace=wrap;rounded=0;fontFamily=Computer Modern;" parent="J8oJ98NYWlFukbN5Ska_-48" vertex="1">
          <mxGeometry x="155" y="180.63" width="20" height="10" as="geometry" />
        </mxCell>
        <mxCell id="J8oJ98NYWlFukbN5Ska_-7" value="" style="group;rotation=-180;fontFamily=Computer Modern;" vertex="1" connectable="0" parent="J8oJ98NYWlFukbN5Ska_-48">
          <mxGeometry x="145" y="160.63" width="10" height="10" as="geometry" />
        </mxCell>
        <mxCell id="J8oJ98NYWlFukbN5Ska_-8" style="size=5;group;rotation=-180;direction=south;strokeColor=default;strokeWidth=0.5;endArrow=circle;endFill=0;endSize=1.5;fontFamily=Computer Modern;" edge="1" parent="J8oJ98NYWlFukbN5Ska_-7">
          <mxGeometry relative="1" as="geometry">
            <mxPoint x="10" as="targetPoint" />
            <mxPoint y="10" as="sourcePoint" />
          </mxGeometry>
        </mxCell>
        <mxCell id="J8oJ98NYWlFukbN5Ska_-9" style="size=5;group;rotation=-180;direction=south;strokeColor=default;strokeWidth=0.5;endSize=1.5;endArrow=circle;endFill=0;startSize=3;fontFamily=Computer Modern;" edge="1" parent="J8oJ98NYWlFukbN5Ska_-7">
          <mxGeometry relative="1" as="geometry">
            <mxPoint as="targetPoint" />
            <mxPoint x="10" y="10" as="sourcePoint" />
          </mxGeometry>
        </mxCell>
        <mxCell id="J8oJ98NYWlFukbN5Ska_-10" value="" style="group;rotation=-180;fontFamily=Computer Modern;" vertex="1" connectable="0" parent="J8oJ98NYWlFukbN5Ska_-48">
          <mxGeometry x="175" y="160.63" width="10" height="10" as="geometry" />
        </mxCell>
        <mxCell id="J8oJ98NYWlFukbN5Ska_-11" style="size=5;group;rotation=-180;direction=south;strokeColor=default;strokeWidth=0.5;endArrow=circle;endFill=0;endSize=1.5;fontFamily=Computer Modern;" edge="1" parent="J8oJ98NYWlFukbN5Ska_-10">
          <mxGeometry relative="1" as="geometry">
            <mxPoint x="10" as="targetPoint" />
            <mxPoint y="10" as="sourcePoint" />
          </mxGeometry>
        </mxCell>
        <mxCell id="J8oJ98NYWlFukbN5Ska_-12" style="size=5;group;rotation=-180;direction=south;strokeColor=default;strokeWidth=0.5;endSize=1.5;endArrow=circle;endFill=0;startSize=3;fontFamily=Computer Modern;" edge="1" parent="J8oJ98NYWlFukbN5Ska_-10">
          <mxGeometry relative="1" as="geometry">
            <mxPoint as="targetPoint" />
            <mxPoint x="10" y="10" as="sourcePoint" />
          </mxGeometry>
        </mxCell>
        <mxCell id="J8oJ98NYWlFukbN5Ska_-13" value="Insertion" style="text;html=1;align=center;verticalAlign=middle;whiteSpace=wrap;rounded=0;fontFamily=Computer Modern;fontColor=#000000;" vertex="1" parent="J8oJ98NYWlFukbN5Ska_-48">
          <mxGeometry x="10.000000000000005" y="200.63" width="90" height="20" as="geometry" />
        </mxCell>
        <mxCell id="J8oJ98NYWlFukbN5Ska_-14" value="Deletion" style="text;html=1;align=center;verticalAlign=middle;whiteSpace=wrap;rounded=0;fontFamily=Computer Modern;fontColor=#000000;" vertex="1" parent="J8oJ98NYWlFukbN5Ska_-48">
          <mxGeometry x="120" y="200.63" width="90" height="20" as="geometry" />
        </mxCell>
        <mxCell id="J8oJ98NYWlFukbN5Ska_-17" value="" style="html=1;shadow=0;dashed=0;align=center;verticalAlign=middle;shape=mxgraph.arrows2.arrow;dy=0;dx=4.02;notch=3.73;strokeColor=#d6b656;fillColor=#fff2cc;fontFamily=Computer Modern;" vertex="1" parent="J8oJ98NYWlFukbN5Ska_-48">
          <mxGeometry x="260" y="170.63" width="30" height="10" as="geometry" />
        </mxCell>
        <mxCell id="J8oJ98NYWlFukbN5Ska_-18" value="" style="html=1;shadow=0;dashed=0;align=center;verticalAlign=middle;shape=mxgraph.arrows2.arrow;dy=0;dx=4.02;notch=3.73;strokeColor=#d6b656;fillColor=#fff2cc;direction=west;fontFamily=Computer Modern;" vertex="1" parent="J8oJ98NYWlFukbN5Ska_-48">
          <mxGeometry x="260" y="190.63" width="30" height="10" as="geometry" />
        </mxCell>
        <mxCell id="J8oJ98NYWlFukbN5Ska_-19" value="=" style="text;html=1;align=center;verticalAlign=middle;whiteSpace=wrap;rounded=0;fontFamily=Computer Modern;" vertex="1" parent="J8oJ98NYWlFukbN5Ska_-48">
          <mxGeometry x="265" y="180.63" width="20" height="10" as="geometry" />
        </mxCell>
        <mxCell id="J8oJ98NYWlFukbN5Ska_-20" value="Inversion" style="text;html=1;align=center;verticalAlign=middle;whiteSpace=wrap;rounded=0;fontFamily=Computer Modern;fontColor=#000000;" vertex="1" parent="J8oJ98NYWlFukbN5Ska_-48">
          <mxGeometry x="230" y="200.63" width="90" height="20" as="geometry" />
        </mxCell>
        <mxCell id="J8oJ98NYWlFukbN5Ska_-21" style="edgeStyle=orthogonalEdgeStyle;rounded=0;orthogonalLoop=1;jettySize=auto;html=1;exitX=0;exitY=0;exitDx=25.98;exitDy=0;exitPerimeter=0;entryX=0;entryY=0;entryDx=0;entryDy=0;entryPerimeter=0;strokeWidth=1;startArrow=none;startFill=0;endWidth=4.600913732867509;flowAnimation=0;endSize=2;elbow=vertical;targetPerimeterSpacing=0;startSize=6;curved=1;fontFamily=Computer Modern;" edge="1" parent="J8oJ98NYWlFukbN5Ska_-48" source="J8oJ98NYWlFukbN5Ska_-17" target="J8oJ98NYWlFukbN5Ska_-17">
          <mxGeometry relative="1" as="geometry">
            <Array as="points">
              <mxPoint x="286" y="160.63" />
              <mxPoint x="260" y="160.63" />
            </Array>
          </mxGeometry>
        </mxCell>
        <mxCell id="J8oJ98NYWlFukbN5Ska_-22" value="Interspersed duplication" style="text;html=1;align=center;verticalAlign=middle;whiteSpace=wrap;rounded=0;fontFamily=Computer Modern;fontColor=#000000;" vertex="1" parent="J8oJ98NYWlFukbN5Ska_-48">
          <mxGeometry x="10.000000000000005" y="270.63" width="90" height="30" as="geometry" />
        </mxCell>
        <mxCell id="J8oJ98NYWlFukbN5Ska_-23" value="&lt;font style=&quot;font-size: 12px;&quot;&gt;Translocation&lt;/font&gt;&lt;div style=&quot;line-height: 120%;&quot;&gt;&lt;font style=&quot;font-size: 10px;&quot;&gt;(inter- or intra- chromosomal)&lt;/font&gt;&lt;/div&gt;" style="text;html=1;align=center;verticalAlign=middle;whiteSpace=wrap;rounded=0;spacing=0;fontFamily=Computer Modern;fontColor=#000000;" vertex="1" parent="J8oJ98NYWlFukbN5Ska_-48">
          <mxGeometry x="100" y="270.63" width="130" height="30" as="geometry" />
        </mxCell>
        <mxCell id="J8oJ98NYWlFukbN5Ska_-24" value="Tandem Duplication" style="text;html=1;align=center;verticalAlign=middle;whiteSpace=wrap;rounded=0;fontFamily=Computer Modern;fontColor=#000000;" vertex="1" parent="J8oJ98NYWlFukbN5Ska_-48">
          <mxGeometry x="230" y="270.63" width="90" height="30" as="geometry" />
        </mxCell>
        <mxCell id="J8oJ98NYWlFukbN5Ska_-25" value="" style="rounded=0;whiteSpace=wrap;html=1;fillColor=#fff2cc;strokeColor=#d6b656;fontFamily=Computer Modern;" vertex="1" parent="J8oJ98NYWlFukbN5Ska_-48">
          <mxGeometry x="20.000000000000004" y="240.63" width="10" height="10" as="geometry" />
        </mxCell>
        <mxCell id="J8oJ98NYWlFukbN5Ska_-26" value="" style="rounded=0;whiteSpace=wrap;html=1;fillColor=#fff2cc;strokeColor=#d6b656;fontFamily=Computer Modern;" vertex="1" parent="J8oJ98NYWlFukbN5Ska_-48">
          <mxGeometry x="20.000000000000004" y="260.63" width="10" height="10" as="geometry" />
        </mxCell>
        <mxCell id="J8oJ98NYWlFukbN5Ska_-27" value="" style="rounded=0;whiteSpace=wrap;html=1;fillColor=#fff2cc;strokeColor=#d6b656;fontFamily=Computer Modern;" vertex="1" parent="J8oJ98NYWlFukbN5Ska_-48">
          <mxGeometry x="50.00000000000001" y="260.63" width="10" height="10" as="geometry" />
        </mxCell>
        <mxCell id="J8oJ98NYWlFukbN5Ska_-28" value="=" style="text;html=1;align=center;verticalAlign=middle;whiteSpace=wrap;rounded=0;fontFamily=Computer Modern;" vertex="1" parent="J8oJ98NYWlFukbN5Ska_-48">
          <mxGeometry x="45.00000000000001" y="250.63" width="20" height="10" as="geometry" />
        </mxCell>
        <mxCell id="J8oJ98NYWlFukbN5Ska_-29" value="" style="rounded=0;whiteSpace=wrap;html=1;fillColor=#fff2cc;strokeColor=#d6b656;fontFamily=Computer Modern;" vertex="1" parent="J8oJ98NYWlFukbN5Ska_-48">
          <mxGeometry x="135" y="240.63" width="15" height="10" as="geometry" />
        </mxCell>
        <mxCell id="J8oJ98NYWlFukbN5Ska_-30" value="" style="rounded=0;whiteSpace=wrap;html=1;fillColor=#fff2cc;strokeColor=#d6b656;fontFamily=Computer Modern;" vertex="1" parent="J8oJ98NYWlFukbN5Ska_-48">
          <mxGeometry x="175" y="260.63" width="15" height="10" as="geometry" />
        </mxCell>
        <mxCell id="J8oJ98NYWlFukbN5Ska_-31" value="" style="group;rotation=-180;fontFamily=Computer Modern;" vertex="1" connectable="0" parent="J8oJ98NYWlFukbN5Ska_-48">
          <mxGeometry x="130" y="230.63" width="10" height="10" as="geometry" />
        </mxCell>
        <mxCell id="J8oJ98NYWlFukbN5Ska_-32" style="size=5;group;rotation=-180;direction=south;strokeColor=default;strokeWidth=0.5;endArrow=circle;endFill=0;endSize=1.5;fontFamily=Computer Modern;" edge="1" parent="J8oJ98NYWlFukbN5Ska_-31">
          <mxGeometry relative="1" as="geometry">
            <mxPoint x="10" as="targetPoint" />
            <mxPoint y="10" as="sourcePoint" />
          </mxGeometry>
        </mxCell>
        <mxCell id="J8oJ98NYWlFukbN5Ska_-33" style="size=5;group;rotation=-180;direction=south;strokeColor=default;strokeWidth=0.5;endSize=1.5;endArrow=circle;endFill=0;startSize=3;fontFamily=Computer Modern;" edge="1" parent="J8oJ98NYWlFukbN5Ska_-31">
          <mxGeometry relative="1" as="geometry">
            <mxPoint as="targetPoint" />
            <mxPoint x="10" y="10" as="sourcePoint" />
          </mxGeometry>
        </mxCell>
        <mxCell id="J8oJ98NYWlFukbN5Ska_-34" value="" style="group;rotation=-180;fontFamily=Computer Modern;" vertex="1" connectable="0" parent="J8oJ98NYWlFukbN5Ska_-48">
          <mxGeometry x="145" y="230.63" width="10" height="10" as="geometry" />
        </mxCell>
        <mxCell id="J8oJ98NYWlFukbN5Ska_-35" style="size=5;group;rotation=-180;direction=south;strokeColor=default;strokeWidth=0.5;endArrow=circle;endFill=0;endSize=1.5;fontFamily=Computer Modern;" edge="1" parent="J8oJ98NYWlFukbN5Ska_-34">
          <mxGeometry relative="1" as="geometry">
            <mxPoint x="10" as="targetPoint" />
            <mxPoint y="10" as="sourcePoint" />
          </mxGeometry>
        </mxCell>
        <mxCell id="J8oJ98NYWlFukbN5Ska_-36" style="size=5;group;rotation=-180;direction=south;strokeColor=default;strokeWidth=0.5;endSize=1.5;endArrow=circle;endFill=0;startSize=3;fontFamily=Computer Modern;" edge="1" parent="J8oJ98NYWlFukbN5Ska_-34">
          <mxGeometry relative="1" as="geometry">
            <mxPoint as="targetPoint" />
            <mxPoint x="10" y="10" as="sourcePoint" />
          </mxGeometry>
        </mxCell>
        <mxCell id="J8oJ98NYWlFukbN5Ska_-37" style="edgeStyle=orthogonalEdgeStyle;rounded=0;orthogonalLoop=1;jettySize=auto;html=1;exitX=0.5;exitY=0;exitDx=0;exitDy=0;entryX=0.694;entryY=0.071;entryDx=0;entryDy=0;entryPerimeter=0;curved=1;endSize=2;fontFamily=Computer Modern;" edge="1" parent="J8oJ98NYWlFukbN5Ska_-48" source="J8oJ98NYWlFukbN5Ska_-29" target="UQ44cCT1rX_nf4LRKSV9-206">
          <mxGeometry relative="1" as="geometry">
            <Array as="points">
              <mxPoint x="143" y="220.63" />
              <mxPoint x="183" y="220.63" />
            </Array>
          </mxGeometry>
        </mxCell>
        <mxCell id="J8oJ98NYWlFukbN5Ska_-38" value="=" style="text;html=1;align=center;verticalAlign=middle;whiteSpace=wrap;rounded=0;fontFamily=Computer Modern;" vertex="1" parent="J8oJ98NYWlFukbN5Ska_-48">
          <mxGeometry x="155.01" y="250.63" width="20" height="10" as="geometry" />
        </mxCell>
        <mxCell id="J8oJ98NYWlFukbN5Ska_-39" value="=" style="text;html=1;align=center;verticalAlign=middle;whiteSpace=wrap;rounded=0;fontFamily=Computer Modern;" vertex="1" parent="J8oJ98NYWlFukbN5Ska_-48">
          <mxGeometry x="265" y="250.63" width="20" height="10" as="geometry" />
        </mxCell>
        <mxCell id="J8oJ98NYWlFukbN5Ska_-40" value="" style="rounded=0;whiteSpace=wrap;html=1;fillColor=#fff2cc;strokeColor=#d6b656;fontFamily=Computer Modern;" vertex="1" parent="J8oJ98NYWlFukbN5Ska_-48">
          <mxGeometry x="245" y="240.63" width="15" height="10" as="geometry" />
        </mxCell>
        <mxCell id="J8oJ98NYWlFukbN5Ska_-41" value="" style="rounded=0;whiteSpace=wrap;html=1;fillColor=#fff2cc;strokeColor=#d6b656;fontFamily=Computer Modern;" vertex="1" parent="J8oJ98NYWlFukbN5Ska_-48">
          <mxGeometry x="245" y="260.63" width="15" height="10" as="geometry" />
        </mxCell>
        <mxCell id="J8oJ98NYWlFukbN5Ska_-42" value="" style="rounded=0;whiteSpace=wrap;html=1;fillColor=#fff2cc;strokeColor=#d6b656;fontFamily=Computer Modern;" vertex="1" parent="J8oJ98NYWlFukbN5Ska_-48">
          <mxGeometry x="260" y="260.63" width="15" height="10" as="geometry" />
        </mxCell>
        <mxCell id="J8oJ98NYWlFukbN5Ska_-43" value="" style="rounded=0;whiteSpace=wrap;html=1;fillColor=#fff2cc;strokeColor=#d6b656;fontFamily=Computer Modern;" vertex="1" parent="J8oJ98NYWlFukbN5Ska_-48">
          <mxGeometry x="275" y="260.63" width="15" height="10" as="geometry" />
        </mxCell>
        <mxCell id="UQ44cCT1rX_nf4LRKSV9-194" value="" style="rounded=0;whiteSpace=wrap;html=1;strokeWidth=0.5;fontFamily=Computer Modern;" parent="J8oJ98NYWlFukbN5Ska_-48" vertex="1">
          <mxGeometry x="150.62" width="30" height="25" as="geometry" />
        </mxCell>
        <mxCell id="UQ44cCT1rX_nf4LRKSV9-196" value="Structural Variants" style="rounded=0;whiteSpace=wrap;html=1;fillColor=none;strokeColor=none;align=right;fontFamily=Computer Modern;fontColor=#6c8ecd;fontStyle=1" parent="J8oJ98NYWlFukbN5Ska_-48" vertex="1">
          <mxGeometry x="220" y="310.63" width="110" height="30" as="geometry" />
        </mxCell>
        <mxCell id="UQ44cCT1rX_nf4LRKSV9-188" value="Sequence Variants" style="rounded=0;whiteSpace=wrap;html=1;align=left;strokeColor=none;fillColor=none;fontFamily=Computer Modern;fontColor=#82b366;fontStyle=1" parent="J8oJ98NYWlFukbN5Ska_-55" vertex="1">
          <mxGeometry x="57" y="922.63" width="110" height="30" as="geometry" />
        </mxCell>
        <mxCell id="UQ44cCT1rX_nf4LRKSV9-183" style="edgeStyle=orthogonalEdgeStyle;rounded=0;orthogonalLoop=1;jettySize=auto;html=1;exitX=0.5;exitY=1;exitDx=0;exitDy=0;entryX=0.5;entryY=0;entryDx=0;entryDy=0;fontFamily=Computer Modern;fillColor=#d5e8d4;strokeColor=#82b366;" parent="J8oJ98NYWlFukbN5Ska_-55" source="UQ44cCT1rX_nf4LRKSV9-47" target="UQ44cCT1rX_nf4LRKSV9-184" edge="1">
          <mxGeometry relative="1" as="geometry">
            <mxPoint x="70" y="810.4597701149426" as="targetPoint" />
            <Array as="points">
              <mxPoint x="225" y="730" />
              <mxPoint x="157" y="730" />
            </Array>
          </mxGeometry>
        </mxCell>
        <mxCell id="UQ44cCT1rX_nf4LRKSV9-185" style="edgeStyle=orthogonalEdgeStyle;rounded=0;orthogonalLoop=1;jettySize=auto;html=1;exitX=0.5;exitY=1;exitDx=0;exitDy=0;fontFamily=Computer Modern;fillColor=#d5e8d4;strokeColor=#82b366;" parent="J8oJ98NYWlFukbN5Ska_-55" source="UQ44cCT1rX_nf4LRKSV9-50" edge="1">
          <mxGeometry relative="1" as="geometry">
            <mxPoint x="237" y="880" as="targetPoint" />
            <Array as="points">
              <mxPoint x="295" y="740" />
              <mxPoint x="267" y="740" />
              <mxPoint x="267" y="880" />
            </Array>
          </mxGeometry>
        </mxCell>
        <mxCell id="J8oJ98NYWlFukbN5Ska_-52" value="" style="edgeStyle=orthogonalEdgeStyle;rounded=0;orthogonalLoop=1;jettySize=auto;html=1;fontFamily=Computer Modern;" edge="1" parent="J8oJ98NYWlFukbN5Ska_-55" source="J8oJ98NYWlFukbN5Ska_-50" target="J8oJ98NYWlFukbN5Ska_-51">
          <mxGeometry relative="1" as="geometry" />
        </mxCell>
        <mxCell id="J8oJ98NYWlFukbN5Ska_-50" value="Variant annotation" style="rounded=0;whiteSpace=wrap;html=1;fontFamily=Computer Modern;" vertex="1" parent="J8oJ98NYWlFukbN5Ska_-55">
          <mxGeometry x="85" y="1039" width="120" height="40" as="geometry" />
        </mxCell>
        <mxCell id="J8oJ98NYWlFukbN5Ska_-54" value="" style="edgeStyle=orthogonalEdgeStyle;rounded=0;orthogonalLoop=1;jettySize=auto;html=1;fontFamily=Computer Modern;" edge="1" parent="J8oJ98NYWlFukbN5Ska_-55" source="J8oJ98NYWlFukbN5Ska_-51" target="J8oJ98NYWlFukbN5Ska_-53">
          <mxGeometry relative="1" as="geometry" />
        </mxCell>
        <mxCell id="J8oJ98NYWlFukbN5Ska_-51" value="Variant interpretation" style="rounded=0;whiteSpace=wrap;html=1;fontFamily=Computer Modern;" vertex="1" parent="J8oJ98NYWlFukbN5Ska_-55">
          <mxGeometry x="285" y="1039" width="120" height="40" as="geometry" />
        </mxCell>
        <mxCell id="J8oJ98NYWlFukbN5Ska_-53" value="Clinical report" style="rounded=0;whiteSpace=wrap;html=1;fontFamily=Computer Modern;" vertex="1" parent="J8oJ98NYWlFukbN5Ska_-55">
          <mxGeometry x="485" y="1039" width="120" height="40" as="geometry" />
        </mxCell>
        <mxCell id="J8oJ98NYWlFukbN5Ska_-56" value="Variant Calling" style="rounded=0;whiteSpace=wrap;html=1;strokeColor=none;fillColor=none;fontColor=#b85450;fontStyle=1" vertex="1" parent="J8oJ98NYWlFukbN5Ska_-55">
          <mxGeometry x="290" y="810" width="40" height="40" as="geometry" />
        </mxCell>
        <mxCell id="J8oJ98NYWlFukbN5Ska_-57" style="edgeStyle=orthogonalEdgeStyle;rounded=0;orthogonalLoop=1;jettySize=auto;html=1;exitX=1;exitY=0.5;exitDx=0;exitDy=0;entryX=-0.004;entryY=0.462;entryDx=0;entryDy=0;entryPerimeter=0;dashed=1;endArrow=none;endFill=0;strokeColor=#b85450;strokeWidth=2;" edge="1" parent="J8oJ98NYWlFukbN5Ska_-55" source="J8oJ98NYWlFukbN5Ska_-56" target="UQ44cCT1rX_nf4LRKSV9-191">
          <mxGeometry relative="1" as="geometry" />
        </mxCell>
        <mxCell id="J8oJ98NYWlFukbN5Ska_-58" style="edgeStyle=orthogonalEdgeStyle;rounded=0;orthogonalLoop=1;jettySize=auto;html=1;exitX=0;exitY=0.5;exitDx=0;exitDy=0;entryX=1.017;entryY=0.475;entryDx=0;entryDy=0;entryPerimeter=0;dashed=1;endArrow=none;endFill=0;strokeColor=#b85450;strokeWidth=2;" edge="1" parent="J8oJ98NYWlFukbN5Ska_-55" source="J8oJ98NYWlFukbN5Ska_-56" target="UQ44cCT1rX_nf4LRKSV9-187">
          <mxGeometry relative="1" as="geometry" />
        </mxCell>
        <mxCell id="J8oJ98NYWlFukbN5Ska_-60" value="" style="rounded=0;whiteSpace=wrap;html=1;" vertex="1" parent="J8oJ98NYWlFukbN5Ska_-55">
          <mxGeometry x="510" y="40" width="190" height="190" as="geometry" />
        </mxCell>
        <mxCell id="UQ44cCT1rX_nf4LRKSV9-167" value="" style="rounded=0;whiteSpace=wrap;html=1;fillColor=#CCCCCC;fontColor=#333333;strokeColor=none;fontFamily=Computer Modern;" parent="J8oJ98NYWlFukbN5Ska_-55" vertex="1">
          <mxGeometry x="520" y="50" width="170" height="10" as="geometry" />
        </mxCell>
        <mxCell id="UQ44cCT1rX_nf4LRKSV9-168" value="" style="rounded=0;whiteSpace=wrap;html=1;fillColor=#CCCCCC;fontColor=#333333;strokeColor=none;fontFamily=Computer Modern;" parent="J8oJ98NYWlFukbN5Ska_-55" vertex="1">
          <mxGeometry x="520" y="70" width="170" height="10" as="geometry" />
        </mxCell>
        <mxCell id="UQ44cCT1rX_nf4LRKSV9-169" value="" style="rounded=0;whiteSpace=wrap;html=1;fillColor=#CCCCCC;fontColor=#333333;strokeColor=none;fontFamily=Computer Modern;" parent="J8oJ98NYWlFukbN5Ska_-55" vertex="1">
          <mxGeometry x="520" y="90" width="170" height="10" as="geometry" />
        </mxCell>
        <mxCell id="UQ44cCT1rX_nf4LRKSV9-170" value="" style="rounded=0;whiteSpace=wrap;html=1;fillColor=#CCCCCC;fontColor=#333333;strokeColor=none;fontFamily=Computer Modern;" parent="J8oJ98NYWlFukbN5Ska_-55" vertex="1">
          <mxGeometry x="520" y="110" width="170" height="10" as="geometry" />
        </mxCell>
        <mxCell id="UQ44cCT1rX_nf4LRKSV9-171" value="" style="rounded=0;whiteSpace=wrap;html=1;fillColor=#CCCCCC;fontColor=#333333;strokeColor=none;fontFamily=Computer Modern;" parent="J8oJ98NYWlFukbN5Ska_-55" vertex="1">
          <mxGeometry x="520" y="130" width="170" height="10" as="geometry" />
        </mxCell>
        <mxCell id="UQ44cCT1rX_nf4LRKSV9-172" value="" style="rounded=0;whiteSpace=wrap;html=1;fillColor=#CCCCCC;fontColor=#333333;strokeColor=none;fontFamily=Computer Modern;" parent="J8oJ98NYWlFukbN5Ska_-55" vertex="1">
          <mxGeometry x="520" y="150" width="170" height="10" as="geometry" />
        </mxCell>
        <mxCell id="UQ44cCT1rX_nf4LRKSV9-173" value="" style="rounded=0;whiteSpace=wrap;html=1;fillColor=#CCCCCC;fontColor=#333333;strokeColor=none;fontFamily=Computer Modern;" parent="J8oJ98NYWlFukbN5Ska_-55" vertex="1">
          <mxGeometry x="520" y="170" width="170" height="10" as="geometry" />
        </mxCell>
        <mxCell id="UQ44cCT1rX_nf4LRKSV9-174" value="" style="rounded=0;whiteSpace=wrap;html=1;fillColor=#CCCCCC;fontColor=#333333;strokeColor=none;fontFamily=Computer Modern;" parent="J8oJ98NYWlFukbN5Ska_-55" vertex="1">
          <mxGeometry x="520" y="190" width="170" height="10" as="geometry" />
        </mxCell>
        <mxCell id="UQ44cCT1rX_nf4LRKSV9-175" value="" style="rounded=0;whiteSpace=wrap;html=1;fillColor=#CCCCCC;fontColor=#333333;strokeColor=none;fontFamily=Computer Modern;" parent="J8oJ98NYWlFukbN5Ska_-55" vertex="1">
          <mxGeometry x="520" y="210" width="170" height="10" as="geometry" />
        </mxCell>
        <mxCell id="UQ44cCT1rX_nf4LRKSV9-51" value="" style="endArrow=classic;html=1;rounded=0;entryX=-0.008;entryY=0.526;entryDx=0;entryDy=0;exitX=1;exitY=0.5;exitDx=0;exitDy=0;fontFamily=Computer Modern;entryPerimeter=0;" parent="J8oJ98NYWlFukbN5Ska_-55" edge="1" target="J8oJ98NYWlFukbN5Ska_-60" source="J8oJ98NYWlFukbN5Ska_-61">
          <mxGeometry width="50" height="50" relative="1" as="geometry">
            <mxPoint x="330" y="130" as="sourcePoint" />
            <mxPoint x="510" y="130" as="targetPoint" />
          </mxGeometry>
        </mxCell>
        <mxCell id="UQ44cCT1rX_nf4LRKSV9-52" value="Quality control&lt;div&gt;FASTQ QC/statistics&lt;/div&gt;&lt;div&gt;+&lt;/div&gt;&lt;div&gt;Adapter trimming&lt;/div&gt;" style="edgeLabel;html=1;align=center;verticalAlign=middle;resizable=0;points=[];fontFamily=Computer Modern;" parent="UQ44cCT1rX_nf4LRKSV9-51" vertex="1" connectable="0">
          <mxGeometry x="-0.0425" y="1" relative="1" as="geometry">
            <mxPoint as="offset" />
          </mxGeometry>
        </mxCell>
        <mxCell id="UQ44cCT1rX_nf4LRKSV9-17" value="RAW sequence reads&lt;div&gt;FASTQ&lt;/div&gt;" style="rounded=0;whiteSpace=wrap;html=1;strokeColor=none;fontFamily=Computer Modern;align=center;fillColor=none;" parent="J8oJ98NYWlFukbN5Ska_-55" vertex="1">
          <mxGeometry x="132" y="270" width="110" height="40" as="geometry" />
        </mxCell>
        <mxCell id="J8oJ98NYWlFukbN5Ska_-64" style="edgeStyle=orthogonalEdgeStyle;rounded=0;orthogonalLoop=1;jettySize=auto;html=1;exitX=0;exitY=0.5;exitDx=0;exitDy=0;endArrow=none;endFill=0;fillColor=#e1d5e7;strokeColor=#a680b8;" edge="1" parent="J8oJ98NYWlFukbN5Ska_-55" source="J8oJ98NYWlFukbN5Ska_-63">
          <mxGeometry relative="1" as="geometry">
            <mxPoint x="447" y="290" as="targetPoint" />
          </mxGeometry>
        </mxCell>
        <mxCell id="J8oJ98NYWlFukbN5Ska_-63" value="Reference genome" style="rounded=0;whiteSpace=wrap;html=1;fillColor=none;strokeColor=#a680b8;strokeWidth=2;" vertex="1" parent="J8oJ98NYWlFukbN5Ska_-55">
          <mxGeometry x="580" y="320" width="120" height="40" as="geometry" />
        </mxCell>
        <mxCell id="J8oJ98NYWlFukbN5Ska_-65" value="Alignment" style="rounded=0;whiteSpace=wrap;html=1;fillColor=none;strokeColor=none;" vertex="1" parent="J8oJ98NYWlFukbN5Ska_-55">
          <mxGeometry x="450" y="300" width="60" height="30" as="geometry" />
        </mxCell>
      </root>
    </mxGraphModel>
  </diagram>
</mxfile>
